<?xml version="1.0" encoding="UTF-8" standalone="no"?>
<svg
   xmlns:dc="http://purl.org/dc/elements/1.1/"
   xmlns:cc="http://creativecommons.org/ns#"
   xmlns:rdf="http://www.w3.org/1999/02/22-rdf-syntax-ns#"
   xmlns:svg="http://www.w3.org/2000/svg"
   xmlns="http://www.w3.org/2000/svg"
   xmlns:sodipodi="http://sodipodi.sourceforge.net/DTD/sodipodi-0.dtd"
   xmlns:inkscape="http://www.inkscape.org/namespaces/inkscape"
   width="53"
   height="55"
   version="1.1"
   id="svg8"
   sodipodi:docname="rc-blockquote.svg"
   inkscape:version="1.0 (4035a4fb49, 2020-05-01)">
  <metadata
     id="metadata14">
    <rdf:RDF>
      <cc:Work
         rdf:about="">
        <dc:format>image/svg+xml</dc:format>
        <dc:type
           rdf:resource="http://purl.org/dc/dcmitype/StillImage" />
        <dc:title />
      </cc:Work>
    </rdf:RDF>
  </metadata>
  <defs
     id="defs12">
    <filter
       height="1.0000094"
       y="-4.7127273e-06"
       width="1.0000216"
       x="-1.08e-05"
       id="filter842"
       style="color-interpolation-filters:sRGB"
       inkscape:collect="always">
      <feGaussianBlur
         id="feGaussianBlur844"
         stdDeviation="0.000108"
         inkscape:collect="always" />
    </filter>
    <filter
       height="1.0000094"
       y="-4.7127273e-06"
       width="1.0000216"
       x="-1.08e-05"
       id="filter846"
       style="color-interpolation-filters:sRGB"
       inkscape:collect="always">
      <feGaussianBlur
         id="feGaussianBlur848"
         stdDeviation="0.000108"
         inkscape:collect="always" />
    </filter>
  </defs>
  <sodipodi:namedview
     inkscape:document-rotation="0"
     pagecolor="#ffffff"
     bordercolor="#666666"
     borderopacity="1"
     objecttolerance="10"
     gridtolerance="10"
     guidetolerance="10"
     inkscape:pageopacity="0"
     inkscape:pageshadow="2"
     inkscape:window-width="1366"
     inkscape:window-height="705"
     id="namedview10"
     showgrid="false"
     inkscape:zoom="8.6"
     inkscape:cx="29.175176"
     inkscape:cy="27.5"
     inkscape:window-x="-8"
     inkscape:window-y="-8"
     inkscape:window-maximized="1"
     inkscape:current-layer="svg8" />
  <g
     id="g840">
    <path
       id="‘"
       d="m 24,0 v 7.178 c -3.11,0.905 -5.441,3.185 -6.996,6.839 -1.555,3.654 -2.332,8.681 -2.332,15.084 v 2.037 H 24 V 55 H 0 V 34.242 C 0,23.7 1.992,15.569 5.976,9.846 9.96,4.123 15.968,0.84 24,0 Z"
       style="display:inline;opacity:0.6;fill:#f37020;fill-opacity:1;fill-rule:evenodd;stroke:none;stroke-width:1;filter:url(#filter842)" />
    <path
       id="‘-copy"
       d="m 53,0 v 7.178 c -3.11,0.905 -5.441,3.185 -6.996,6.839 -1.555,3.654 -2.332,8.681 -2.332,15.084 v 2.037 H 53 V 55 H 29 V 34.242 C 29,23.701 30.992,15.569 34.976,9.846 38.96,4.123 44.968,0.84 53,0 Z"
       style="display:inline;opacity:0.6;fill:#f37020;fill-opacity:1;fill-rule:evenodd;stroke:none;stroke-width:1;filter:url(#filter846)"
       inkscape:highlight-color="4294967295" />
  </g>
</svg>
