<?xml version="1.0" encoding="UTF-8" standalone="no"?>
<svg
   xmlns:dc="http://purl.org/dc/elements/1.1/"
   xmlns:cc="http://creativecommons.org/ns#"
   xmlns:rdf="http://www.w3.org/1999/02/22-rdf-syntax-ns#"
   xmlns:svg="http://www.w3.org/2000/svg"
   xmlns="http://www.w3.org/2000/svg"
   xmlns:sodipodi="http://sodipodi.sourceforge.net/DTD/sodipodi-0.dtd"
   xmlns:inkscape="http://www.inkscape.org/namespaces/inkscape"
   inkscape:version="1.0 (4035a4fb49, 2020-05-01)"
   sodipodi:docname="eccp-icon-admin.svg"
   id="svg6"
   version="1.1"
   viewBox="0 0 16 16"
   preserveAspectRatio="xMidYMid meet"
   height="16"
   width="16">
  <metadata
     id="metadata12">
    <rdf:RDF>
      <cc:Work
         rdf:about="">
        <dc:format>image/svg+xml</dc:format>
        <dc:type
           rdf:resource="http://purl.org/dc/dcmitype/StillImage" />
        <dc:title></dc:title>
      </cc:Work>
    </rdf:RDF>
  </metadata>
  <defs
     id="defs10" />
  <sodipodi:namedview
     inkscape:current-layer="svg6"
     inkscape:window-maximized="1"
     inkscape:window-y="-8"
     inkscape:window-x="-8"
     inkscape:cy="258.827"
     inkscape:cx="256"
     inkscape:zoom="0.92556928"
     showgrid="false"
     id="namedview8"
     inkscape:window-height="705"
     inkscape:window-width="1366"
     inkscape:pageshadow="2"
     inkscape:pageopacity="0"
     guidetolerance="10"
     gridtolerance="10"
     objecttolerance="10"
     borderopacity="1"
     bordercolor="#666666"
     pagecolor="#ffffff" />
  <path
     style="fill:#f0f6fc;fill-opacity:0.601083;stroke-width:0.0312507"
     id="path2"
     fill="rgba(240,246,252,.6)"
     d="M 6.3963531,0.12230179 C 3.2900291,0.72856144 0.78684439,3.2254762 0.17432979,6.3224005 -0.98194778,12.166243 4.2900529,16.522562 8.2620226,15.906928 9.5495533,15.706924 10.180818,14.20065 9.5901793,13.041257 8.8682871,11.622485 9.8995617,9.9662084 11.49335,9.9662084 h 2.490684 c 1.118777,0 2.025048,-0.9250146 2.028173,-2.0406574 C 15.996582,3.0004726 11.515225,-0.87458908 6.3963531,0.12230179 Z M 3.0118974,9.9662084 c -0.5531381,0 -1.0000238,-0.4468821 -1.0000238,-1.0000158 0,-0.5531338 0.4468857,-1.0000159 1.0000238,-1.0000159 0.5531382,0 1.0000239,0.4468821 1.0000239,1.0000159 0,0.5531337 -0.4468857,1.0000158 -1.0000239,1.0000158 z M 4.0119213,5.9661448 c -0.5531382,0 -1.0000239,-0.4468821 -1.0000239,-1.0000159 0,-0.5531338 0.4468857,-1.0000159 1.0000239,-1.0000159 0.5531382,0 1.0000238,0.4468821 1.0000238,1.0000159 0,0.5531338 -0.4468856,1.0000159 -1.0000238,1.0000159 z M 8.0120167,3.966113 c -0.5531382,0 -1.0000239,-0.4468821 -1.0000239,-1.0000159 0,-0.5531338 0.4468857,-1.0000159 1.0000239,-1.0000159 0.5531381,0 1.0000238,0.4468821 1.0000238,1.0000159 0,0.5531338 -0.4468857,1.0000159 -1.0000238,1.0000159 z m 4.0000953,2.0000318 c -0.553138,0 -1.000024,-0.4468821 -1.000024,-1.0000159 0,-0.5531338 0.446886,-1.0000159 1.000024,-1.0000159 0.553138,0 1.000024,0.4468821 1.000024,1.0000159 0,0.5531338 -0.446886,1.0000159 -1.000024,1.0000159 z" />
</svg>
