<?xml version="1.0" encoding="UTF-8" standalone="no"?>
<svg
   xmlns:dc="http://purl.org/dc/elements/1.1/"
   xmlns:cc="http://creativecommons.org/ns#"
   xmlns:rdf="http://www.w3.org/1999/02/22-rdf-syntax-ns#"
   xmlns:svg="http://www.w3.org/2000/svg"
   xmlns="http://www.w3.org/2000/svg"
   xmlns:sodipodi="http://sodipodi.sourceforge.net/DTD/sodipodi-0.dtd"
   xmlns:inkscape="http://www.inkscape.org/namespaces/inkscape"
   inkscape:version="1.0 (4035a4fb49, 2020-05-01)"
   sodipodi:docname="eccp-outline-dotted.svg"
   id="svg4"
   version="1.1"
   width="24"
   height="24">
  <metadata
     id="metadata10">
    <rdf:RDF>
      <cc:Work
         rdf:about="">
        <dc:format>image/svg+xml</dc:format>
        <dc:type
           rdf:resource="http://purl.org/dc/dcmitype/StillImage" />
        <dc:title></dc:title>
      </cc:Work>
    </rdf:RDF>
  </metadata>
  <defs
     id="defs8" />
  <sodipodi:namedview
     inkscape:current-layer="svg4"
     inkscape:window-maximized="1"
     inkscape:window-y="-8"
     inkscape:window-x="-8"
     inkscape:cy="12"
     inkscape:cx="12"
     inkscape:zoom="19.745478"
     showgrid="false"
     id="namedview6"
     inkscape:window-height="705"
     inkscape:window-width="1366"
     inkscape:pageshadow="2"
     inkscape:pageopacity="0"
     guidetolerance="10"
     gridtolerance="10"
     objecttolerance="10"
     borderopacity="1"
     bordercolor="#666666"
     pagecolor="#ffffff" />
  <g
     id="g893">
    <path
       d="M 19,5 V 3 h 2 v 2 z"
       id="path875" />
    <path
       d="M 19,9 V 7 h 2 v 2 z"
       id="path873" />
    <path
       d="m 19,13 v -2 h 2 v 2 z"
       id="path871" />
    <path
       d="m 19,17 v -2 h 2 v 2 z"
       id="path869" />
    <path
       d="m 19,21 v -2 h 2 v 2 z"
       id="path867" />
    <path
       d="M 15,5 V 3 h 2 v 2 z"
       id="path865" />
    <path
       d="m 15,21 v -2 h 2 v 2 z"
       id="path861" />
    <path
       d="M 11,5 V 3 h 2 v 2 z"
       id="path859" />
    <path
       d="m 11,21 v -2 h 2 v 2 z"
       id="path851" />
    <path
       d="M 7,5 V 3 h 2 v 2 z"
       id="path849" />
    <path
       d="m 7,21 v -2 h 2 v 2 z"
       id="path845" />
    <path
       d="M 3,5 V 3 h 2 v 2 z"
       id="path843" />
    <path
       d="M 3,9 V 7 h 2 v 2 z"
       id="path841" />
    <path
       d="m 3,13 v -2 h 2 v 2 z"
       id="path839" />
    <path
       d="m 3,17 v -2 h 2 v 2 z"
       id="path837" />
    <path
       d="m 3,21 v -2 h 2 v 2 z"
       id="path2" />
  </g>
</svg>
